<svg id="Layer_1" data-name="Layer 1" xmlns="http://www.w3.org/2000/svg" viewBox="0 0 1314 1294"><defs><style>.cls-1{fill:#333;}</style></defs><path class="cls-1" d="M1192.26,763.4c38.8-111.84,0-216.82,0-216.82l-127.81-33.09c.39,1.41.76,2.82,1.13,4.23a420.53,420.53,0,0,0-17.79-46.17l71.35-117.45C1067.5,247.58,965.83,200.78,965.83,200.78l-113.77,67c1.36.77,2.7,1.56,4.05,2.34a421,421,0,0,0-45.48-20.21L778,116.38c-111.83-38.8-216.82,0-216.82,0l-33.09,127.8c1.42-.39,2.82-.76,4.23-1.13a417.65,417.65,0,0,0-46.16,17.8L368.73,189.49C262.22,241.13,215.42,342.8,215.42,342.8l67,113.77c.77-1.36,1.56-2.7,2.34-4.05A421.13,421.13,0,0,0,264.53,498L131,530.6c-38.8,111.84,0,216.82,0,216.82l127.8,33.09c-.39-1.41-.76-2.82-1.13-4.23a420.59,420.59,0,0,0,17.8,46.17L204.12,939.9c51.64,106.52,153.31,153.32,153.31,153.32l113.77-67c-1.36-.77-2.7-1.56-4.05-2.34a421.19,421.19,0,0,0,45.49,20.21l32.6,133.51c111.83,38.8,216.81,0,216.81,0l33.09-127.8c-1.41.39-2.82.76-4.23,1.13a420.59,420.59,0,0,0,46.17-17.8l117.46,71.36c106.51-51.64,153.31-153.31,153.31-153.31l-67-113.77c-.77,1.36-1.55,2.7-2.34,4.05A421.19,421.19,0,0,0,1058.74,796ZM661.63,845.63C551.93,845.63,463,756.7,463,647s88.92-198.63,198.62-198.63S860.26,537.3,860.26,647,771.33,845.63,661.63,845.63Z"/></svg>