<?xml version="1.0" encoding="utf-8"?>
<!-- Generator: Adobe Illustrator 26.0.3, SVG Export Plug-In . SVG Version: 6.00 Build 0)  -->
<svg version="1.1" id="Layer_1" xmlns="http://www.w3.org/2000/svg" xmlns:xlink="http://www.w3.org/1999/xlink" x="0px" y="0px"
	 viewBox="0 0 887.7 794.8" style="enable-background:new 0 0 887.7 794.8;" xml:space="preserve">
<style type="text/css">
	.st0{fill:#FFFFFF;}
</style>
<g>
	<path class="st0" d="M345.3,547.5c48.5,0,97,0,145.4,0c10,0,20-0.1,30,0.1c2.9,0.1,3.5-0.9,3.5-3.6c0.2-8.8-0.5-17.6,0.5-26.4
		c1.5-13.1,7.3-23.9,16.6-33c3-2.9,6.7-4,10.9-4c37,0,74-0.4,110.9,0.3c16.1,0.3,32.2-1.1,48.3,0.2c7.5,0.6,15.2-0.1,22.8-0.5
		c6.7-0.3,11.7,2.4,16,7.4c9.6,11,14,23.7,13.7,38.2c-0.1,5.5,0,11-0.2,16.5c-0.1,3.6,0.7,5.1,4.9,5c21.7-0.4,40.7,6.8,56.2,21.8
		c15.4,14.9,23.3,33.5,23.7,55c0.3,14.7,0.4,29.3,0,44c-1.2,37.3-28.5,68.5-64.7,73.8c-20.5,3-41.2,0.7-61.8,1
		c-8.6,0.1-17.3,0.1-25.9,0.1c-86.5,0-172.9,0-259.4,0c-16.9,0-33.9-0.2-50.8-0.1c-72.3,0.3-144.5,0.4-216.8,0
		c-17.3-0.1-32.5-6.5-45.6-18.7c-6.2-5.7-12.1-11.3-16.6-18.3c-8.4-13-11.6-27.6-11.3-43c0.3-13.7-0.1-27.3,0.2-41
		c0.8-34.4,25.5-64,58.3-72.2c15.1-3.8,30.4-2.4,45.7-2.5C248.4,547.3,296.9,547.4,345.3,547.5C345.3,547.5,345.3,547.5,345.3,547.5
		z M380.5,595.3c-27-0.8-49.6,21.8-50.7,48.1c-1.2,28.9,22.6,52.7,50.5,52.5c27.6-0.2,50-22.5,50.2-49.9
		C430.7,617.3,406.8,594.8,380.5,595.3z M145.8,645.2c-1,26.5,21.9,50.8,50.1,50.8c27.4-0.1,50.1-22.2,50.5-49.6
		c0.4-27.3-22.2-50.4-48.8-51.2C168.6,594.4,145.1,619,145.8,645.2z M748.7,595.4c-27.3-0.4-50.7,21.2-50.7,50.1
		c0,27.4,20.6,51,51.9,50.4c27.2-0.5,48.6-22,48.7-50.2C798.8,617.4,776,595.4,748.7,595.4z M564.2,695.7
		c27.3,0.5,50.2-21.7,50.3-49.9c0.1-28.7-23.4-52.3-53.8-50.5c-25.7,1.6-45.7,22.2-46.9,47.9C512.5,673.2,537.5,696.4,564.2,695.7z"
		/>
	<path class="st0" d="M188.5,209.7c7.6,14.7,7.6,30.3,7.4,45.9c-0.2,15.7,0,31.3,0,47c0,6.4-2.6,10.2-7.2,10.8
		c-5.8,0.8-9.1-1.7-10.7-8.3c-4-16.3-8.5-32.5-11.8-49c-2.6-12.8-9.5-21.2-21.6-25.6c-18.7-6.8-36.7-5.8-53.7,5.2
		c-6.2,4-9.4,9.9-11,16.9c-4.2,17.8-8.5,35.6-12.9,53.3c-1.5,5.9-4.8,8.1-10.4,7.4c-4.2-0.6-7.4-4.6-7.5-9.8
		c-0.1-21.8-0.3-43.6,0.1-65.5c0.2-13.6,4.1-26.7,12.1-37.6c4.6-6.3,9.6-12.4,16.4-17.5c10.3-7.6,20.9-12.9,33.1-15
		c19.7-3.4,36.7-13.4,54.8-20.7c40.6-16.5,80.8-33.8,121.3-50.6c3.5-1.5,5.4-3.4,6.9-6.9C306,59,329,40.6,361.7,36.9
		c37.6-4.3,69.7,15.2,85,48.5c1.2,2.7,2.7,4.1,5.4,5.1c47.2,17.8,94.4,35.7,141.6,53.7c2,0.7,3.7,0.9,5.7,0.3
		c28.7-9.1,56.7-7.1,83.1,7.4c30.5,16.8,49.2,42.6,54.3,77.4c4.3,29.6-2.3,56.5-20.6,80.3c-3.5,4.5-1.6,8.9-1.1,13.1
		c2,16.8,4.4,33.5,6.7,50.2c2.2,15.9,4.4,31.8,6.6,47.7c0.9,6.7,1.7,13.4,2.7,20.9c-15.7,0-31,0-46.4,0c-40.6,0-81.2-0.1-121.8,0.1
		c-4.9,0-5.3-1.8-4.8-5.6c4-29.6,8-59.1,11.9-88.7c0.3-2.3,0.2-4.7,1.1-6.8c2.5-6.5-1-9.7-5.7-13.4c-20.4-16.2-32.5-37.5-37.3-63
		c-0.5-2.7-1.4-4.4-3.7-5.9c-35.2-22.6-70.4-45.3-105.5-68c-2.2-1.4-3.5-1.2-5.6,0c-32.3,18.2-69,14.8-97.1-9.1
		c-1.8-1.5-3.2-1.7-5.3-1.2c-35.5,8.8-71,17.5-106.6,26.1C199.2,207.3,194,208.4,188.5,209.7z M632.3,176.3
		c-34.8-0.9-69.3,27.6-69.1,69c0.1,38.2,29.8,68.7,68.9,68.8c41.1,0.1,68.5-33.6,69-68.2C701.7,209.2,670.8,175.3,632.3,176.3z
		 M421,119.1c0.7-26.5-21.1-50.7-50.4-50.3c-30,0.4-49.7,25-49.6,49.7c0.1,29.3,22.6,50.8,50.5,51.2
		C395.6,170,422.6,149.4,421,119.1z"/>
	<path class="st0" d="M319.9,364.5c29.8,0,59.6,0,89.4,0c15.8,0,26.5,10.9,26.5,26.6c0,4,0,8,0,12c0,24.9,0,49.9,0,74.8
		c0,7.5-0.2,15,0.1,22.5c0.1,3.1-0.9,3.9-3.9,3.8c-23.5-0.1-47-0.1-70.5-0.1c-50.7,0-101.4-0.1-152.1,0.1c-4.1,0-5.6-0.7-5.6-5.2
		c0.2-36.8,0-73.6,0.2-110.4c0-13.4,11.7-24,26.5-24.1C260.3,364.4,290.1,364.5,319.9,364.5z"/>
</g>
</svg>
